<?xml version="1.0" encoding="UTF-8"?>
<!-- Generator: visioncortex VTracer 0.6.3 -->
<svg version="1.1" xmlns="http://www.w3.org/2000/svg" width="1280" height="960">
<path d="M0 0 C422.4 0 844.8 0 1280 0 C1280 316.8 1280 633.6 1280 960 C857.6 960 435.2 960 0 960 C0 643.2 0 326.4 0 0 Z " fill="#222A3B" transform="translate(0,0)"/>
<path d="M0 0 C295.02 0 590.04 0 894 0 C894 20.76 894 20.76 893.27 29.93 C893.19 30.96 893.11 31.99 893.03 33.05 C892.78 36.33 892.52 39.6 892.25 42.88 C892.16 44.01 892.07 45.14 891.97 46.3 C888.8 85.31 881.63 122.59 870.31 160.06 C869.91 161.41 869.91 161.41 869.5 162.78 C866.17 173.76 862.39 184.4 858 195 C857.43 196.49 856.86 197.99 856.3 199.49 C844.78 230.46 829.59 261.73 811.18 289.23 C809.59 291.62 808.08 294.06 806.56 296.5 C795.93 313.15 784.78 329.96 771.28 344.44 C768.51 347.55 765.98 350.82 763.44 354.12 C759.86 358.76 756.2 363.05 751.94 367.09 C750.16 368.84 748.56 370.63 746.95 372.54 C742.69 377.44 738.12 382.03 733.51 386.62 C732.06 388.06 730.62 389.51 729.18 390.96 C724.52 395.62 719.8 400.16 714.79 404.46 C711.99 406.87 709.32 409.41 706.62 411.94 C701.28 416.9 695.76 421.53 690 426 C688.95 426.84 687.91 427.67 686.87 428.51 C678.43 435.27 669.71 441.55 660.84 447.72 C659.33 448.77 657.83 449.85 656.33 450.93 C649.02 456.2 641.32 460.82 633.59 465.44 C631.85 466.49 630.12 467.54 628.38 468.59 C615.7 476.29 602.77 483.31 589.5 489.94 C588.8 490.29 588.09 490.64 587.37 491.01 C579.12 495.13 570.82 499.05 562.33 502.66 C557.36 504.79 552.63 507.21 548 510 C543.52 507.2 539.81 504.08 536.03 500.39 C533.52 498.67 531.98 498.73 529 499 C529.5 499.64 529.99 500.28 530.5 500.94 C532.51 505.04 532.74 508.5 532 513 C529.84 516.63 527.84 518.38 524 520 C521.64 520.41 521.64 520.41 519.25 520.62 C518.45 520.7 517.65 520.77 516.83 520.85 C516.22 520.9 515.62 520.95 515 521 C514.67 522.98 514.34 524.96 514 527 C520.23 526.55 525.06 523.6 530.44 520.69 C531.35 520.2 532.27 519.71 533.21 519.21 C537.18 517.09 541.11 514.94 544.98 512.63 C548 511 548 511 550.94 511.25 C551.62 511.5 552.3 511.75 553 512 C553.33 513.32 553.66 514.64 554 516 C547.19 521.57 539.96 525.81 532.19 529.88 C531.28 530.35 530.37 530.83 529.44 531.32 C516.76 537.84 516.76 537.84 510 537 C506.27 535.17 504.41 534.15 503 530.19 C503 526.48 503.81 523.5 505 520 C501.18 520.26 499.4 520.64 496.52 523.25 C495.77 524.16 495.02 525.07 494.25 526 C489.35 531.86 489.35 531.86 485.98 532.2 C479.57 532.33 479.57 532.33 476.44 530.5 C475.96 530 475.49 529.51 475 529 C475.42 523.66 476.19 520.81 480 517 C482.6 514.91 485.27 512.93 488 511 C487.34 509.68 486.68 508.36 486 507 C479.54 507.27 475.55 509.41 471 514 C467.24 520.17 464.63 527.05 462.12 533.81 C461.76 534.8 461.39 535.78 461.01 536.79 C452.21 560.82 444.05 585.19 437.08 609.81 C430.29 633.71 430.29 633.71 422 642 C419.38 641.62 419.38 641.62 417 641 C417.59 635.76 418.82 631.02 420.56 626.04 C420.83 625.27 421.09 624.5 421.36 623.7 C422.23 621.15 423.12 618.61 424 616.06 C424.62 614.26 425.24 612.46 425.86 610.66 C432.51 591.38 439.33 572.16 446.17 552.95 C449.13 544.64 452.07 536.32 455 528 C452.23 528.52 449.72 529.1 447.06 530.06 C443.87 531.04 441.31 531.16 438 531 C438.33 532.65 438.66 534.3 439 536 C428.3 540.78 418.27 542.09 406.69 542.61 C401.4 542.86 396.34 543.53 391.13 544.5 C378.68 546.49 365.88 546.16 353.31 546.13 C350.33 546.13 347.36 546.13 344.38 546.14 C334.91 546.14 325.46 546.02 316 545.55 C315.2 545.52 314.4 545.48 313.57 545.44 C307.76 545.12 302.09 544.4 296.34 543.46 C291.5 542.79 286.65 542.66 281.77 542.54 C279 542 279 542 277.62 540.27 C275.37 532.05 277.26 522.36 278 514 C277.43 513.8 276.87 513.59 276.29 513.38 C275.55 513.11 274.82 512.84 274.06 512.56 C273.33 512.3 272.6 512.03 271.85 511.75 C270 511 270 511 269 510 C268.5 507.25 268.5 507.25 269 504 C270.68 502.42 272.4 501.27 274.37 500.08 C276.17 499.09 276.17 499.09 277 497 C277.25 492.85 277.25 492.85 276 489 C275.64 483.64 276.59 479.25 278.38 474.25 C278.6 473.59 278.82 472.93 279.05 472.25 C280.11 469.18 281.19 466.72 283 464 C286.63 464.33 290.26 464.66 294 465 C293.17 464.32 292.35 463.64 291.5 462.94 C289 460 289 460 288.38 456.94 C289.92 447.19 294.49 439.28 301 432 C301.57 431.35 302.14 430.7 302.72 430.03 C307.69 424.69 312.73 421.87 319.75 420 C323 420 323 420 325.38 421.62 C327.28 424.42 328 425.6 328 429 C326.16 434.55 323.25 439.18 320 444 C319.63 445.32 319.28 446.66 319 448 C321.06 447.24 323.13 446.46 325.19 445.69 C326.34 445.26 327.48 444.83 328.67 444.39 C335.15 441.78 335.15 441.78 338.88 436.19 C339.46 434.66 340.02 433.11 340.56 431.56 C340.86 430.76 341.15 429.96 341.46 429.14 C342.33 426.76 343.17 424.39 344 422 C344.23 421.33 344.46 420.67 344.7 419.98 C345.84 416.67 346.94 413.34 348 410 C346.41 408.41 344.8 408.87 342.6 408.87 C341.66 408.87 340.72 408.86 339.75 408.86 C338.72 408.87 337.69 408.87 336.62 408.88 C335.57 408.88 334.52 408.88 333.43 408.88 C320.95 408.95 308.47 409.45 296 410 C293.36 416.46 290.9 422.96 288.62 429.56 C288.3 430.49 287.98 431.43 287.65 432.39 C286.67 435.22 285.7 438.06 284.72 440.89 C283.91 443.26 283.1 445.63 282.28 448 C280.69 452.63 279.11 457.25 277.52 461.88 C276.88 463.75 276.24 465.62 275.6 467.49 C274.69 470.14 273.79 472.79 272.88 475.45 C272.6 476.25 272.33 477.06 272.04 477.88 C271.79 478.63 271.53 479.38 271.27 480.15 C271.05 480.8 270.83 481.45 270.6 482.12 C270.3 483.05 270.3 483.05 270 484 C269.78 484.7 269.56 485.4 269.33 486.12 C269.22 486.74 269.11 487.36 269 488 C269.5 488.64 269.99 489.28 270.5 489.94 C272 492 272 492 271.75 494.69 C271 497 271 497 270 498 C268.33 498.04 266.67 498.04 265 498 C264.83 498.57 264.66 499.14 264.48 499.73 C264.24 500.54 264 501.35 263.75 502.19 C263.48 503.12 263.2 504.05 262.92 505 C262.33 506.92 261.71 508.82 261.05 510.71 C259.22 516.1 257.91 521.22 257.1 526.85 C256.95 527.9 256.79 528.95 256.64 530.04 C256.34 532.13 256.08 534.23 255.83 536.33 C254.78 543.89 252.2 548.44 247 554 C244.56 553.19 244.56 553.19 242 552 C240.87 548.61 241.13 547.8 242.16 544.5 C242.43 543.59 242.71 542.68 243 541.75 C243.3 540.77 243.61 539.79 243.93 538.79 C244.24 537.78 244.55 536.77 244.87 535.73 C245.86 532.51 246.87 529.28 247.88 526.06 C248.87 522.84 249.87 519.62 250.86 516.4 C251.48 514.4 252.1 512.39 252.73 510.39 C253.01 509.48 253.29 508.57 253.59 507.63 C253.83 506.83 254.08 506.03 254.34 505.21 C254.56 504.48 254.78 503.75 255 503 C255.24 502.29 255.47 501.57 255.71 500.84 C255.81 500.23 255.9 499.62 256 499 C253.27 496.27 250.97 496.27 247.19 495.5 C226.96 490.86 202.63 478.2 191.23 460.21 C190.82 459.48 190.42 458.75 190 458 C189.39 459.08 189.39 459.08 188.78 460.18 C181.76 472.6 174.36 484.79 167 497 C162.25 496.12 162.25 496.12 160 495 C160.54 490.33 161.8 487.11 164.18 483.06 C164.83 481.93 165.49 480.8 166.17 479.64 C166.52 479.04 166.87 478.45 167.23 477.84 C168.7 475.34 170.16 472.82 171.62 470.3 C172.35 469.02 173.09 467.75 173.84 466.47 C192.81 434.03 192.81 434.03 206 399 C206.3 397.96 206.3 397.96 206.6 396.89 C207.75 391.46 207.56 385.97 205 381 C190.47 380.18 178.25 386.73 167.35 395.88 C158.7 403.69 151.5 412.79 149.94 424.69 C149.6 433.3 152.79 439.38 158 446 C157.06 448.43 156.51 449.72 154.19 451 C150.74 451 149.42 449.36 147 447 C141.1 439.42 139.94 431.37 141 422 C146.05 401.8 159.62 386.72 177 376 C186.95 370.34 196.35 366.43 208 368 C212.81 370.19 215.01 374.28 217 379 C218.67 391.21 215.53 402.41 212 414 C215.55 411.22 218.89 408.31 222.19 405.25 C226.42 401.39 230.72 397.72 235.23 394.18 C237.3 392.55 239.35 390.91 241.4 389.26 C255.49 377.87 270.04 367.14 284.77 356.6 C286.23 355.55 287.69 354.5 289.14 353.45 C299.64 345.88 310.39 338.82 321.41 332.02 C322.98 331.09 322.98 331.09 324 330 C318.41 330.5 314.44 331.96 309.56 334.69 C308.91 335.04 308.25 335.4 307.57 335.77 C303.29 338.14 299.46 340.8 295.65 343.88 C293.23 345.52 290.88 345.86 288 346 C287.74 345.04 287.74 345.04 287.47 344.06 C286.09 341.62 286.09 341.62 282.67 341.33 C281.26 341.22 279.84 341.13 278.42 341.04 C269.3 340.22 260.98 338.06 252.25 335.38 C250.75 334.92 249.25 334.47 247.75 334.02 C222.84 326.43 198.49 316.58 176.07 303.23 C173.74 301.85 171.41 300.49 169.07 299.12 C159.01 293.22 149.3 287.05 140 280 C139.42 279.56 138.84 279.13 138.24 278.68 C130.7 272.96 123.56 266.94 116.65 260.47 C114.54 258.5 112.4 256.61 110.19 254.75 C106.1 251.2 102.27 247.38 98.44 243.56 C97.5 242.63 97.5 242.63 96.54 241.68 C92.16 237.28 88.03 232.72 84 228 C83.45 227.37 82.91 226.73 82.35 226.08 C73.08 215.24 64.77 203.96 57 192 C56.46 191.17 55.92 190.34 55.36 189.48 C30.59 151.12 12.32 108.22 5 63 C4.81 61.89 4.63 60.77 4.44 59.62 C1.06 39.33 0 20.88 0 0 Z " fill="#272E43" transform="translate(292,0)"/>
<path d="M0 0 C5.63 2.25 5.63 2.25 8.09 4.98 C8.62 5.56 9.15 6.14 9.71 6.75 C10.26 7.37 10.81 7.99 11.38 8.62 C11.95 9.26 12.53 9.9 13.13 10.56 C16.48 14.26 19.78 18 23.04 21.78 C31.22 31.07 39.8 39.97 48.57 48.7 C50.27 50.39 51.95 52.08 53.64 53.78 C58.74 58.88 63.84 63.92 69.36 68.57 C71.16 70.14 72.83 71.8 74.5 73.5 C77.47 76.51 80.57 79.3 83.78 82.06 C86.33 84.29 88.82 86.58 91.31 88.88 C100.05 96.84 109.35 104.09 118.65 111.37 C121.5 113.6 124.31 115.86 127.12 118.12 C141.06 129.29 155.67 139.61 170.59 149.41 C172.38 150.59 174.17 151.77 175.96 152.95 C188.49 161.22 201.03 169.42 214 177 C215.19 177.72 216.37 178.44 217.55 179.16 C255.46 202.12 296.08 221.17 337.54 236.7 C339.88 237.58 342.22 238.46 344.56 239.35 C373.9 250.45 403.72 259.59 434.08 267.5 C435.91 267.98 437.74 268.46 439.58 268.94 C455.27 273.03 471.07 276.28 487 279.25 C487.89 279.42 488.78 279.58 489.7 279.76 C502.75 282.19 515.84 284.22 529 286 C530.22 286.17 530.22 286.17 531.46 286.34 C537.16 287.12 542.86 287.86 548.56 288.56 C549.44 288.67 550.31 288.78 551.21 288.89 C567.79 290.91 584.36 291.87 601.05 292.46 C601.95 292.49 602.84 292.52 603.77 292.55 C605.45 292.61 607.12 292.66 608.8 292.71 C612.65 292.83 616.24 293.2 620 294 C639.82 295.26 659.96 293.68 679.75 292.62 C680.95 292.56 682.16 292.5 683.4 292.43 C697.65 291.68 711.82 290.67 726 289 C727.92 288.78 727.92 288.78 729.88 288.56 C769.74 284.02 809.1 276.8 848 267 C849.13 266.72 850.26 266.44 851.42 266.15 C872.67 260.84 893.32 254.17 914 247 C914.65 246.78 915.3 246.55 915.97 246.32 C924.68 243.31 933.35 240.19 942 237 C943.62 236.41 943.62 236.41 945.27 235.81 C965.17 228.49 984.16 219.5 1003.22 210.27 C1008.58 207.68 1013.96 205.13 1019.35 202.62 C1028.73 198.23 1037.78 193.39 1046.78 188.26 C1049.83 186.53 1052.92 184.84 1056 183.15 C1071.64 174.54 1086.4 164.8 1101.22 154.86 C1103.56 153.3 1105.9 151.74 1108.25 150.2 C1129.32 136.35 1149.64 121.15 1169 105 C1170.75 103.58 1172.5 102.17 1174.25 100.75 C1178.8 97.02 1183.29 93.22 1187.75 89.38 C1188.36 88.85 1188.98 88.32 1189.61 87.78 C1192.62 85.18 1195.5 82.52 1198.27 79.66 C1200.95 76.93 1203.78 74.56 1206.8 72.19 C1214.68 65.83 1221.7 58.56 1228.83 51.38 C1231.25 48.93 1233.69 46.5 1236.12 44.06 C1237.69 42.49 1239.26 40.91 1240.83 39.34 C1241.54 38.62 1242.26 37.9 1243 37.16 C1246.97 33.16 1250.77 29.07 1254.43 24.78 C1256 23 1257.66 21.34 1259.38 19.69 C1262.36 16.77 1264.95 13.64 1267.56 10.38 C1270.78 6.38 1273.81 2.97 1278 0 C1278.66 0 1279.32 0 1280 0 C1280 137.28 1280 274.56 1280 416 C857.6 416 435.2 416 0 416 C0 278.72 0 141.44 0 0 Z " fill="#1D2737" transform="translate(0,544)"/>
<path d="M0 0 C65.34 0 130.68 0 198 0 C198 20.76 198 20.76 197.27 29.93 C197.19 30.96 197.11 31.99 197.03 33.05 C196.78 36.33 196.52 39.6 196.25 42.88 C196.16 44.01 196.07 45.14 195.97 46.3 C192.8 85.31 185.63 122.59 174.31 160.06 C173.91 161.41 173.91 161.41 173.5 162.78 C170.17 173.76 166.39 184.4 162 195 C161.43 196.49 160.86 197.99 160.3 199.49 C148.78 230.46 133.59 261.73 115.18 289.23 C113.59 291.62 112.08 294.06 110.56 296.5 C99.93 313.15 88.78 329.96 75.28 344.44 C72.51 347.55 69.98 350.82 67.44 354.12 C63.86 358.76 60.2 363.05 55.94 367.09 C54.16 368.84 52.56 370.63 50.95 372.54 C46.69 377.44 42.12 382.03 37.51 386.62 C36.06 388.06 34.62 389.51 33.18 390.96 C28.52 395.62 23.8 400.16 18.79 404.46 C15.99 406.87 13.32 409.41 10.62 411.94 C5.28 416.9 -0.24 421.53 -6 426 C-7.05 426.84 -8.09 427.67 -9.13 428.51 C-17.57 435.27 -26.29 441.55 -35.16 447.72 C-36.67 448.77 -38.17 449.85 -39.67 450.93 C-46.98 456.2 -54.68 460.82 -62.41 465.44 C-64.15 466.49 -65.88 467.54 -67.62 468.59 C-80.3 476.29 -93.23 483.31 -106.5 489.94 C-107.2 490.29 -107.91 490.64 -108.63 491.01 C-116.88 495.13 -125.18 499.05 -133.67 502.66 C-138.64 504.79 -143.37 507.21 -148 510 C-152.48 507.2 -156.19 504.08 -159.97 500.39 C-162.48 498.67 -164.02 498.73 -167 499 C-166.5 499.64 -166.01 500.28 -165.5 500.94 C-163.49 505.04 -163.26 508.5 -164 513 C-166.16 516.63 -168.16 518.38 -172 520 C-174.36 520.41 -174.36 520.41 -176.75 520.62 C-177.55 520.7 -178.35 520.77 -179.17 520.85 C-179.78 520.9 -180.38 520.95 -181 521 C-181.33 522.98 -181.66 524.96 -182 527 C-175.77 526.55 -170.94 523.6 -165.56 520.69 C-164.65 520.2 -163.73 519.71 -162.79 519.21 C-158.82 517.09 -154.89 514.94 -151.02 512.63 C-148 511 -148 511 -145.06 511.25 C-144.38 511.5 -143.7 511.75 -143 512 C-142.67 513.32 -142.34 514.64 -142 516 C-148.81 521.57 -156.04 525.81 -163.81 529.88 C-164.72 530.35 -165.63 530.83 -166.56 531.32 C-179.24 537.84 -179.24 537.84 -186 537 C-189.73 535.17 -191.59 534.15 -193 530.19 C-193 526.48 -192.19 523.5 -191 520 C-194.82 520.26 -196.6 520.64 -199.48 523.25 C-200.23 524.16 -200.98 525.07 -201.75 526 C-206.65 531.86 -206.65 531.86 -210.02 532.2 C-216.43 532.33 -216.43 532.33 -219.56 530.5 C-220.04 530 -220.51 529.51 -221 529 C-220.58 523.66 -219.81 520.81 -216 517 C-213.4 514.91 -210.73 512.93 -208 511 C-208.66 509.68 -209.32 508.36 -210 507 C-216.46 507.27 -220.45 509.41 -225 514 C-228.76 520.17 -231.37 527.05 -233.88 533.81 C-234.24 534.8 -234.61 535.78 -234.99 536.79 C-243.79 560.82 -251.95 585.19 -258.92 609.81 C-265.71 633.71 -265.71 633.71 -274 642 C-276.62 641.62 -276.62 641.62 -279 641 C-278.41 635.76 -277.18 631.02 -275.44 626.04 C-275.17 625.27 -274.91 624.5 -274.64 623.7 C-273.77 621.15 -272.88 618.61 -272 616.06 C-271.38 614.26 -270.76 612.46 -270.14 610.66 C-263.49 591.38 -256.67 572.16 -249.83 552.95 C-246.87 544.64 -243.93 536.32 -241 528 C-243.77 528.52 -246.28 529.1 -248.94 530.06 C-252.13 531.04 -254.69 531.16 -258 531 C-257.67 532.65 -257.34 534.3 -257 536 C-267.7 540.78 -277.73 542.09 -289.31 542.61 C-294.6 542.86 -299.66 543.53 -304.87 544.5 C-317.32 546.49 -330.12 546.16 -342.69 546.13 C-345.67 546.13 -348.64 546.13 -351.62 546.14 C-361.09 546.14 -370.54 546.02 -380 545.55 C-380.8 545.52 -381.6 545.48 -382.43 545.44 C-388.24 545.12 -393.91 544.4 -399.66 543.46 C-404.5 542.79 -409.35 542.66 -414.23 542.54 C-417 542 -417 542 -418.38 540.27 C-420.63 532.05 -418.74 522.36 -418 514 C-418.85 513.69 -418.85 513.69 -419.71 513.38 C-420.45 513.11 -421.18 512.84 -421.94 512.56 C-422.67 512.3 -423.4 512.03 -424.15 511.75 C-426 511 -426 511 -427 510 C-427.5 507.25 -427.5 507.25 -427 504 C-425.32 502.42 -423.6 501.27 -421.63 500.08 C-419.83 499.09 -419.83 499.09 -419 497 C-418.75 492.85 -418.75 492.85 -420 489 C-420.36 483.64 -419.41 479.25 -417.62 474.25 C-417.4 473.59 -417.18 472.93 -416.95 472.25 C-415.89 469.18 -414.81 466.72 -413 464 C-409.37 464.33 -405.74 464.66 -402 465 C-402.83 464.32 -403.65 463.64 -404.5 462.94 C-407 460 -407 460 -407.62 456.94 C-406.08 447.19 -401.51 439.28 -395 432 C-394.43 431.35 -393.86 430.7 -393.28 430.03 C-388.31 424.69 -383.27 421.87 -376.25 420 C-373 420 -373 420 -370.62 421.62 C-368.72 424.42 -368 425.6 -368 429 C-369.84 434.55 -372.75 439.18 -376 444 C-376.37 445.32 -376.72 446.66 -377 448 C-374.94 447.24 -372.87 446.46 -370.81 445.69 C-369.66 445.26 -368.52 444.83 -367.33 444.39 C-360.85 441.78 -360.85 441.78 -357.12 436.19 C-356.54 434.66 -355.98 433.11 -355.44 431.56 C-355.14 430.76 -354.85 429.96 -354.54 429.14 C-353.67 426.76 -352.83 424.39 -352 422 C-351.77 421.33 -351.54 420.67 -351.3 419.98 C-350.16 416.67 -349.06 413.34 -348 410 C-349.59 408.41 -351.2 408.87 -353.4 408.87 C-354.34 408.87 -355.28 408.86 -356.25 408.86 C-357.28 408.87 -358.31 408.87 -359.38 408.88 C-360.43 408.88 -361.48 408.88 -362.57 408.88 C-375.05 408.95 -387.53 409.45 -400 410 C-402.64 416.46 -405.1 422.96 -407.38 429.56 C-407.7 430.49 -408.02 431.43 -408.35 432.39 C-409.33 435.22 -410.3 438.06 -411.28 440.89 C-412.09 443.26 -412.9 445.63 -413.72 448 C-415.31 452.63 -416.89 457.25 -418.48 461.88 C-419.12 463.75 -419.76 465.62 -420.4 467.49 C-421.31 470.14 -422.21 472.79 -423.12 475.45 C-423.4 476.25 -423.67 477.06 -423.96 477.88 C-424.21 478.63 -424.47 479.38 -424.73 480.15 C-424.95 480.8 -425.17 481.45 -425.4 482.12 C-425.6 482.74 -425.8 483.36 -426 484 C-426.22 484.7 -426.44 485.4 -426.67 486.12 C-426.78 486.74 -426.89 487.36 -427 488 C-426.5 488.64 -426.01 489.28 -425.5 489.94 C-424 492 -424 492 -424.25 494.69 C-425 497 -425 497 -426 498 C-427.67 498.04 -429.33 498.04 -431 498 C-431.17 498.57 -431.34 499.14 -431.52 499.73 C-431.76 500.54 -432 501.35 -432.25 502.19 C-432.52 503.12 -432.8 504.05 -433.08 505 C-433.67 506.92 -434.29 508.82 -434.95 510.71 C-436.78 516.1 -438.09 521.22 -438.9 526.85 C-439.05 527.9 -439.21 528.95 -439.36 530.04 C-439.66 532.13 -439.92 534.23 -440.17 536.33 C-441.22 543.89 -443.8 548.44 -449 554 C-451.44 553.19 -451.44 553.19 -454 552 C-455.13 548.61 -454.87 547.8 -453.84 544.5 C-453.57 543.59 -453.29 542.68 -453 541.75 C-452.7 540.77 -452.39 539.79 -452.07 538.79 C-451.76 537.78 -451.45 536.77 -451.13 535.73 C-450.14 532.51 -449.13 529.28 -448.12 526.06 C-447.13 522.84 -446.13 519.62 -445.14 516.4 C-444.52 514.4 -443.9 512.39 -443.27 510.39 C-442.85 509.02 -442.85 509.02 -442.41 507.63 C-442.17 506.83 -441.92 506.03 -441.66 505.21 C-441.44 504.48 -441.22 503.75 -441 503 C-440.76 502.29 -440.53 501.57 -440.29 500.84 C-440.19 500.23 -440.1 499.62 -440 499 C-442.73 496.27 -445.03 496.27 -448.81 495.5 C-469.04 490.86 -493.37 478.2 -504.77 460.21 C-505.18 459.48 -505.58 458.75 -506 458 C-506.4 458.72 -506.81 459.44 -507.22 460.18 C-514.24 472.6 -521.64 484.79 -529 497 C-533.75 496.12 -533.75 496.12 -536 495 C-535.46 490.33 -534.2 487.11 -531.82 483.06 C-531.17 481.93 -530.51 480.8 -529.83 479.64 C-529.48 479.04 -529.13 478.45 -528.77 477.84 C-527.3 475.34 -525.84 472.82 -524.38 470.3 C-523.65 469.02 -522.91 467.75 -522.16 466.47 C-503.19 434.03 -503.19 434.03 -490 399 C-489.7 397.96 -489.7 397.96 -489.4 396.89 C-488.25 391.46 -488.44 385.97 -491 381 C-505.53 380.18 -517.75 386.73 -528.65 395.88 C-537.3 403.69 -544.5 412.79 -546.06 424.69 C-546.4 433.3 -543.21 439.38 -538 446 C-538.94 448.43 -539.49 449.72 -541.81 451 C-545.26 451 -546.58 449.36 -549 447 C-554.9 439.42 -556.06 431.37 -555 422 C-549.95 401.8 -536.38 386.72 -519 376 C-509.05 370.34 -499.65 366.43 -488 368 C-483.19 370.19 -480.99 374.28 -479 379 C-477.33 391.21 -480.47 402.41 -484 414 C-480.45 411.22 -477.11 408.31 -473.81 405.25 C-469.58 401.39 -465.28 397.72 -460.77 394.18 C-458.7 392.55 -456.65 390.91 -454.6 389.26 C-440.51 377.87 -425.95 367.14 -411.22 356.59 C-409.08 355.06 -406.95 353.51 -404.82 351.97 C-370.89 327.51 -370.89 327.51 -362 328 C-360.88 330.81 -360.88 330.81 -360 334 C-362.17 337.26 -363.55 337.77 -367.07 339.17 C-370.31 340.56 -373.22 342.43 -376.19 344.31 C-377.21 344.96 -377.21 344.96 -378.25 345.62 C-410.4 366.13 -441.39 389.74 -470.33 414.57 C-472.08 416.07 -473.84 417.56 -475.61 419.04 C-489.43 429.83 -489.43 429.83 -499 444 C-499.23 451.08 -496.46 455.64 -492 461 C-479.65 474.15 -459.89 484.23 -442 487 C-440.02 487 -438.04 487 -436 487 C-432.7 477.43 -429.4 467.86 -426 458 C-428.97 458.99 -431.94 459.98 -435 461 C-438.61 462.2 -441.21 462.33 -445 462 C-447.75 460.2 -449.53 458.95 -451 456 C-451.94 447.23 -448.37 440.68 -442.94 433.94 C-440.79 431.41 -439.27 430.57 -436 430 C-434.79 432.16 -434.79 432.16 -434 435 C-435.34 437.72 -435.34 437.72 -437.38 440.5 C-440.08 444.22 -441.49 446.34 -441 451 C-437.68 452.08 -436.16 452.05 -432.81 450.88 C-431.14 450.01 -431.14 450.01 -429.44 449.12 C-428.32 448.57 -427.21 448.02 -426.06 447.45 C-421.94 444.15 -420.72 440.9 -419 436 C-418.65 435.02 -418.3 434.04 -417.95 433.02 C-416.85 429.84 -415.79 426.64 -414.75 423.44 C-414.39 422.33 -414.02 421.23 -413.65 420.09 C-412.76 417.4 -411.88 414.7 -411 412 C-415.62 412 -420.24 412 -425 412 C-424.34 413.32 -423.68 414.64 -423 416 C-423.1 419.12 -424.24 420.31 -426.19 422.81 C-429 425 -429 425 -432.31 424.81 C-433.2 424.54 -434.09 424.28 -435 424 C-434.5 420.27 -434.13 418.19 -432 415 C-432.97 414.61 -433.94 414.22 -434.94 413.81 C-438 412 -438 412 -439.06 409.5 C-439 407 -439 407 -437.91 405.4 C-435.15 403.37 -432.76 403.36 -429.36 403.05 C-428.06 402.93 -426.77 402.8 -425.43 402.67 C-424.06 402.55 -422.68 402.43 -421.31 402.31 C-419.93 402.18 -418.55 402.05 -417.16 401.92 C-413.78 401.6 -410.39 401.3 -407 401 C-406.8 400.47 -406.61 399.93 -406.41 399.38 C-405.51 396.96 -404.6 394.54 -403.69 392.12 C-403.38 391.28 -403.07 390.44 -402.75 389.57 C-402.45 388.77 -402.14 387.96 -401.82 387.13 C-401.55 386.39 -401.27 385.65 -400.98 384.88 C-400 383 -400 383 -397 381 C-396.01 381 -395.02 381 -394 381 C-392 386 -392 386 -396 400 C-378.84 399.34 -361.68 398.68 -344 398 C-341.52 391.81 -339.08 385.63 -336.79 379.37 C-336.51 378.59 -336.22 377.8 -335.93 376.99 C-335.01 374.48 -334.1 371.96 -333.19 369.44 C-332.88 368.58 -332.56 367.72 -332.24 366.83 C-328.03 355.15 -324.13 343.5 -321.13 331.44 C-319.8 326.21 -318.49 322.18 -315 318 C-311.35 316.88 -309.63 316.79 -306 318 C-305.01 317.67 -304.02 317.34 -303 317 C-301 319 -301 319 -300.56 322.69 C-300.65 328.75 -302.87 334.2 -304.91 339.84 C-306.11 342.76 -306.11 342.76 -306 345 C-300.29 345.35 -300.29 345.35 -295 343.5 C-291.79 341.89 -289.9 342.02 -286.4 342.08 C-235.52 340.34 -178.37 307.55 -139 278 C-137.82 277.13 -136.63 276.25 -135.45 275.38 C-128.01 269.84 -121.23 263.76 -114.5 257.4 C-112.3 255.35 -110.06 253.36 -107.81 251.38 C-100.79 245.07 -94.08 238.47 -87.95 231.29 C-86.44 229.52 -84.91 227.77 -83.36 226.02 C-37.56 174.12 -10.32 107.01 -2.31 38.69 C-2.19 37.69 -2.07 36.7 -1.95 35.68 C-0.66 23.77 -0.48 12.04 0 0 Z " fill="#262A3E" transform="translate(988,0)"/>
<path d="M0 0 C65.34 0 130.68 0 198 0 C198.99 18.32 198.99 18.32 200 37 C201.34 46.65 202.66 56.15 204.4 65.71 C204.9 68.45 205.36 71.2 205.79 73.95 C209.8 97.4 219.01 121.48 229 143 C229.43 143.94 229.85 144.89 230.29 145.86 C237.16 160.97 244.92 175.12 254 189 C254.76 190.18 255.52 191.36 256.28 192.55 C260.88 199.59 265.82 206.37 271 213 C271.71 213.9 271.71 213.9 272.43 214.83 C280.74 225.42 289.63 235.34 299 245 C299.53 245.55 300.06 246.09 300.6 246.65 C306.18 252.37 311.9 257.84 318 263 C318.91 263.8 319.81 264.59 320.75 265.41 C333.51 276.54 347.2 286.31 361.87 294.75 C364.29 296.17 366.69 297.63 369.09 299.09 C394.78 314.68 421.81 325.85 450.56 334.5 C451.26 334.71 451.96 334.93 452.67 335.15 C461.3 337.78 469.59 339.61 478.62 340.17 C480.66 340.33 480.66 340.33 484 341 C485.47 343.06 485.47 343.06 486 345 C491.3 343.74 495.31 341.79 499.81 338.69 C515.84 328.06 515.84 328.06 523 329 C523 329.66 523 330.32 523 331 C520.45 332.67 517.88 334.22 515.25 335.75 C504.79 341.99 494.9 348.92 485 356 C483.46 357.1 481.91 358.19 480.37 359.29 C470.4 366.39 460.69 373.79 451.08 381.36 C449.13 382.9 447.18 384.42 445.21 385.94 C434.46 394.3 424.06 403.01 414.02 412.22 C412 414 412 414 409 416 C409.87 410.62 410.78 405.45 412.62 400.31 C414.9 393 415.7 383.56 412.98 376.27 C410.96 372.92 409.28 371.19 406 369 C392.31 366.91 379.79 373.14 369 381 C368.1 381.65 367.19 382.29 366.26 382.96 C353.75 392.5 342.97 406.18 340 422 C339.33 430.85 339.93 438.49 345 445.94 C348.16 449.2 350.64 450.22 355 451 C355.66 451.33 356.32 451.66 357 452 C357.99 451.34 358.98 450.68 360 450 C360.92 445.01 359.81 442.3 357.06 438.25 C356.52 437.51 355.97 436.78 355.41 436.02 C352.67 432.09 352.7 428.66 353 424 C355.36 412.35 364.12 401.39 373.8 394.77 C378.11 392.01 382.52 389.47 387 387 C388.07 386.37 388.07 386.37 389.16 385.73 C391.53 384.79 393.17 384.97 395.69 385.31 C396.87 385.46 396.87 385.46 398.07 385.61 C400 386 400 386 401 387 C402.76 404.02 391.33 421.38 384 436 C383.57 436.86 383.14 437.72 382.7 438.61 C365.9 472.1 365.9 472.1 359 479 C357.06 478.94 355.12 478.85 353.19 478.75 C348.31 478.58 348.31 478.58 344.38 481.25 C343.92 482.16 343.47 483.06 343 484 C342.59 484.66 342.18 485.32 341.75 486 C340.84 488.43 340.86 490.43 341 493 C341.85 493 341.85 493 342.72 493.01 C347.42 493.24 350.15 493.7 353.56 497.06 C356.08 499.49 357.53 500.44 361.06 500.5 C366.13 499.86 369.75 498.84 374 496 C376.26 495.59 376.26 495.59 378.69 495.38 C379.9 495.26 379.9 495.26 381.14 495.15 C381.75 495.1 382.37 495.05 383 495 C383.68 493.1 383.68 493.1 384 491 C383.34 490.38 382.68 489.76 382 489.12 C380 487 380 487 379.88 484.31 C381.43 479.72 383.64 475.53 387 472 C389.45 471.02 389.45 471.02 392 471 C394.04 472.37 394.04 472.37 396.06 474.44 C407.88 485.63 422.65 492.93 438 498 C438.88 498.3 439.77 498.6 440.68 498.91 C442.78 499.61 444.89 500.31 447 501 C446.35 502.95 446.35 502.95 445 505 C442.4 505.61 442.4 505.61 439.38 505.75 C438.37 505.81 437.37 505.86 436.34 505.92 C435.57 505.95 434.79 505.97 434 506 C433.42 507.61 433.42 507.61 432.83 509.25 C432.3 510.69 431.78 512.13 431.25 513.56 C431 514.27 430.74 514.97 430.48 515.7 C425.98 527.93 425.98 527.93 421.7 530.25 C418.54 531.13 416.91 530.87 413.77 530.05 C412.73 529.79 411.7 529.52 410.64 529.25 C409.52 528.94 408.4 528.63 407.25 528.31 C406.07 528 404.89 527.68 403.68 527.35 C389.21 523.37 375.01 518.59 360.84 513.64 C359.15 513.05 357.45 512.47 355.75 511.88 C331.7 503.59 308.25 492.44 286.01 480.11 C283.69 478.83 281.37 477.58 279.04 476.33 C269.07 470.95 259.41 465.33 250 459 C248.81 458.21 248.81 458.21 247.6 457.41 C234.47 448.67 221.77 439.5 209.33 429.81 C207.2 428.15 205.06 426.51 202.93 424.86 C196.91 420.21 191.07 415.43 185.48 410.27 C184.16 409.06 182.83 407.86 181.46 406.7 C174.6 400.88 168.31 394.46 161.96 388.09 C159.94 386.07 157.92 384.05 155.89 382.03 C149.71 375.85 143.63 369.68 138 363 C136.5 361.35 135 359.7 133.5 358.06 C130.08 354.27 126.88 350.38 123.79 346.31 C121.88 343.84 119.88 341.46 117.88 339.06 C106.21 324.83 96.03 309.41 86 294 C85.55 293.3 85.09 292.6 84.62 291.88 C81.66 287.31 78.8 282.68 76 278 C75.53 277.21 75.06 276.42 74.57 275.61 C59.92 250.88 47.49 224.75 37 198 C36.6 197.01 36.2 196.01 35.79 194.99 C24.41 166.47 15.79 136.08 9.88 105.94 C9.71 105.1 9.54 104.26 9.37 103.4 C8.17 97.21 7.23 91.02 6.49 84.75 C6.08 81.64 5.58 78.57 5.04 75.48 C3.86 68.45 3.12 61.4 2.44 54.31 C2.37 53.65 2.31 52.99 2.24 52.31 C0.53 34.73 0 17.78 0 0 Z " fill="#262A3E" transform="translate(94,0)"/>
<path d="M0 0 C1.46 4.57 -0.09 7.89 -1.72 12.22 C-2.01 13.03 -2.31 13.83 -2.61 14.66 C-3.56 17.28 -4.53 19.89 -5.5 22.5 C-6.16 24.29 -6.81 26.08 -7.46 27.87 C-8.74 31.37 -10.02 34.86 -11.3 38.35 C-13.27 43.74 -15.19 49.14 -17.06 54.56 C-18.53 58.79 -20 63.02 -21.52 67.22 C-21.76 67.89 -22 68.55 -22.25 69.23 C-22.88 70.97 -23.52 72.71 -24.15 74.45 C-25.1 76.87 -25.1 76.87 -25 79 C-23.74 79.03 -23.74 79.03 -22.46 79.06 C-19.36 79.14 -16.25 79.22 -13.15 79.32 C-11.14 79.37 -9.14 79.42 -7.13 79.47 C-5.87 79.51 -4.62 79.55 -3.32 79.59 C-2.16 79.62 -1 79.65 0.2 79.68 C3 80 3 80 5 82 C4.75 85.06 4.75 85.06 4 88 C1.04 89.48 -1.95 89.12 -5.2 89.1 C-5.9 89.1 -6.61 89.09 -7.34 89.09 C-9.6 89.09 -11.86 89.08 -14.12 89.06 C-15.66 89.06 -17.19 89.05 -18.72 89.05 C-22.48 89.04 -26.24 89.02 -30 89 C-30.17 89.6 -30.35 90.2 -30.53 90.82 C-32.63 98 -35.09 105.01 -37.66 112.03 C-37.96 112.87 -38.26 113.72 -38.57 114.59 C-38.85 115.34 -39.12 116.09 -39.41 116.87 C-40.18 119.27 -40.18 119.27 -40 123 C-39.42 122.3 -38.84 121.6 -38.24 120.88 C-37.46 119.97 -36.68 119.06 -35.88 118.12 C-35.11 117.22 -34.34 116.32 -33.55 115.38 C-30.77 112.79 -28.65 111.92 -25 111 C-23 112.56 -23 112.56 -21 115 C-20.51 120.06 -21.3 124.99 -22 130 C-19.39 131 -18.28 131.11 -15.63 130.1 C-10.01 126.79 -6.66 123.7 -3.29 118.12 C-1.15 114.6 0.94 111.7 4.95 110.34 C7.06 109.94 7.06 109.94 11 110 C13.38 111.69 13.38 111.69 15 114 C15.41 114.58 15.83 115.15 16.25 115.75 C17.41 119.23 17.62 122.42 17 126 C15.38 129.17 14.87 130.18 12 132 C7.72 133.37 3.43 134.26 -1 135 C-1.33 136.98 -1.66 138.96 -2 141 C4.51 139.67 9.75 137.31 15.56 134.12 C16.78 133.47 16.78 133.47 18.02 132.81 C19.61 131.95 21.2 131.09 22.78 130.21 C24.18 129.45 25.6 128.72 27.04 128.04 C32 125.59 33.36 123 35.19 117.88 C37.55 111.32 37.55 111.32 39.99 109.57 C42 109 42 109 45 109 C46.42 114.05 45.51 117.23 43.69 121.95 C42.84 124.11 42.84 124.11 43 127 C43.68 126.28 44.36 125.56 45.06 124.81 C49.81 120.1 54.1 116.5 61 116 C61 116.66 61 117.32 61 118 C61.66 118 62.32 118 63 118 C62.35 123.01 61.44 127.92 60.4 132.86 C59.94 134.97 59.94 134.97 60 137 C68.42 134.11 75.57 129.8 83 125 C84.56 126.19 84.56 126.19 86 128 C85.99 130.44 85.99 130.44 85 133 C77.07 140.72 66.49 145.38 55.88 148.03 C54 148 54 148 52.27 146.78 C50.16 143.82 50.69 140.47 51 137 C51.5 134.5 51.5 134.5 52 133 C48.13 133.54 46.66 135.13 44.19 138.06 C43.5 138.87 42.8 139.68 42.09 140.51 C41.06 141.74 41.06 141.74 40 143 C38.75 144.46 37.5 145.92 36.25 147.38 C35.72 148 35.19 148.63 34.64 149.27 C32.89 151.12 31.12 152.59 29 154 C28.34 154 27.68 154 27 154 C27 153.34 27 152.68 27 152 C26.34 152 25.68 152 25 152 C25.52 147.62 26.06 143.31 27 139 C23.96 139.66 21.36 140.68 18.56 142.03 C17.73 142.43 16.9 142.83 16.04 143.24 C15.18 143.65 14.32 144.07 13.44 144.5 C11.73 145.32 10.02 146.15 8.31 146.97 C7.18 147.52 7.18 147.52 6.02 148.08 C1.85 149.98 -1.43 150.39 -6 150 C-8.88 148.5 -8.88 148.5 -11 146 C-11.7 143.27 -11.86 140.85 -12 138 C-12.56 138.2 -13.11 138.41 -13.69 138.62 C-26.56 143.16 -26.56 143.16 -31.62 140.75 C-33.9 136.19 -32.22 131.78 -31 127 C-35.17 131.17 -38.44 135.98 -41.69 140.88 C-42.12 141.52 -42.55 142.17 -42.99 142.83 C-46.91 148.76 -50.58 154.83 -54.19 160.95 C-55.41 163 -56.68 165.02 -58 167 C-62.75 166.12 -62.75 166.12 -65 165 C-64.33 161.18 -63.26 157.69 -61.93 154.04 C-61.53 152.93 -61.13 151.82 -60.71 150.67 C-60.29 149.52 -59.87 148.37 -59.44 147.19 C-58.8 145.43 -58.8 145.43 -58.15 143.64 C-57.1 140.76 -56.05 137.88 -55 135 C-58.24 135.61 -60.97 136.32 -63.94 137.75 C-85.91 147.7 -85.91 147.7 -97.19 143.94 C-99 142 -99 142 -99.62 139.06 C-98.87 129.47 -93.23 120.97 -87 114 C-86.43 113.35 -85.86 112.7 -85.28 112.03 C-80.31 106.69 -75.27 103.87 -68.25 102 C-65 102 -65 102 -62.62 103.62 C-60.72 106.42 -60 107.6 -60 111 C-61.84 116.55 -64.75 121.18 -68 126 C-68.37 127.32 -68.72 128.66 -69 130 C-66.94 129.24 -64.87 128.46 -62.81 127.69 C-61.66 127.26 -60.52 126.83 -59.33 126.39 C-52.85 123.78 -52.85 123.78 -49.12 118.19 C-48.54 116.66 -47.98 115.11 -47.44 113.56 C-47.14 112.76 -46.85 111.96 -46.54 111.14 C-45.67 108.76 -44.83 106.39 -44 104 C-43.77 103.33 -43.54 102.67 -43.3 101.98 C-42.16 98.67 -41.06 95.34 -40 92 C-41.59 90.41 -43.2 90.87 -45.4 90.87 C-46.34 90.87 -47.28 90.86 -48.25 90.86 C-49.28 90.87 -50.31 90.87 -51.38 90.88 C-52.43 90.88 -53.48 90.88 -54.57 90.88 C-67.05 90.95 -79.53 91.45 -92 92 C-94.64 98.46 -97.1 104.96 -99.38 111.56 C-99.7 112.49 -100.02 113.43 -100.35 114.39 C-101.33 117.22 -102.3 120.06 -103.28 122.89 C-104.09 125.26 -104.9 127.63 -105.72 130 C-107.31 134.63 -108.89 139.25 -110.48 143.88 C-111.12 145.75 -111.76 147.62 -112.4 149.49 C-113.31 152.14 -114.21 154.79 -115.12 157.45 C-115.53 158.65 -115.53 158.65 -115.96 159.88 C-116.21 160.63 -116.47 161.38 -116.73 162.15 C-116.95 162.8 -117.17 163.45 -117.4 164.12 C-117.6 164.74 -117.8 165.36 -118 166 C-118.33 167.05 -118.33 167.05 -118.67 168.12 C-118.78 168.74 -118.89 169.36 -119 170 C-118.5 170.64 -118.01 171.28 -117.5 171.94 C-116 174 -116 174 -116.25 176.69 C-117 179 -117 179 -118 180 C-119.67 180.04 -121.33 180.04 -123 180 C-123.17 180.57 -123.34 181.14 -123.52 181.73 C-123.88 182.95 -123.88 182.95 -124.25 184.19 C-124.66 185.58 -124.66 185.58 -125.08 187 C-125.67 188.92 -126.29 190.82 -126.95 192.71 C-128.78 198.1 -130.09 203.22 -130.9 208.85 C-131.05 209.9 -131.21 210.95 -131.36 212.04 C-131.66 214.13 -131.92 216.23 -132.17 218.33 C-133.22 225.89 -135.8 230.44 -141 236 C-143.44 235.19 -143.44 235.19 -146 234 C-147.13 230.61 -146.87 229.8 -145.84 226.5 C-145.57 225.59 -145.29 224.68 -145 223.75 C-144.7 222.77 -144.39 221.79 -144.07 220.79 C-143.61 219.27 -143.61 219.27 -143.13 217.73 C-142.14 214.51 -141.13 211.28 -140.12 208.06 C-139.13 204.84 -138.13 201.62 -137.14 198.4 C-136.52 196.4 -135.9 194.39 -135.27 192.39 C-134.99 191.48 -134.71 190.57 -134.41 189.63 C-134.17 188.83 -133.92 188.03 -133.66 187.21 C-133.44 186.48 -133.22 185.75 -133 185 C-132.76 184.29 -132.53 183.57 -132.29 182.84 C-132.19 182.23 -132.1 181.62 -132 181 C-134.73 178.27 -137.03 178.27 -140.81 177.5 C-161.04 172.86 -185.37 160.2 -196.77 142.21 C-197.18 141.48 -197.58 140.75 -198 140 C-198.4 140.72 -198.81 141.44 -199.22 142.18 C-206.24 154.6 -213.64 166.79 -221 179 C-225.75 178.13 -225.75 178.13 -228 177 C-227.46 172.33 -226.2 169.11 -223.82 165.06 C-223.17 163.93 -222.51 162.8 -221.83 161.64 C-221.48 161.04 -221.13 160.45 -220.77 159.84 C-219.3 157.34 -217.84 154.82 -216.38 152.3 C-215.65 151.02 -214.91 149.75 -214.16 148.47 C-195.19 116.03 -195.19 116.03 -182 81 C-181.8 80.3 -181.6 79.61 -181.4 78.89 C-180.25 73.46 -180.44 67.97 -183 63 C-197.53 62.18 -209.75 68.73 -220.65 77.88 C-229.3 85.69 -236.5 94.79 -238.06 106.69 C-238.4 115.3 -235.21 121.38 -230 128 C-230.94 130.43 -231.49 131.72 -233.81 133 C-237.26 133 -238.58 131.36 -241 129 C-246.9 121.42 -248.06 113.37 -247 104 C-241.95 83.8 -228.38 68.72 -211 58 C-201.05 52.34 -191.65 48.43 -180 50 C-175.19 52.19 -172.99 56.28 -171 61 C-169.33 73.21 -172.47 84.41 -176 96 C-172.45 93.22 -169.11 90.31 -165.81 87.25 C-161.58 83.39 -157.28 79.72 -152.77 76.18 C-150.7 74.55 -148.65 72.91 -146.6 71.26 C-132.51 59.87 -117.95 49.14 -103.22 38.59 C-101.08 37.06 -98.95 35.51 -96.82 33.97 C-62.89 9.51 -62.89 9.51 -54 10 C-52.88 12.81 -52.88 12.81 -52 16 C-54.17 19.26 -55.55 19.77 -59.07 21.17 C-62.31 22.56 -65.22 24.43 -68.19 26.31 C-68.87 26.74 -69.55 27.17 -70.25 27.62 C-102.4 48.13 -133.39 71.74 -162.33 96.57 C-164.08 98.07 -165.84 99.56 -167.61 101.04 C-181.43 111.83 -181.43 111.83 -191 126 C-191.23 133.08 -188.46 137.64 -184 143 C-171.65 156.15 -151.89 166.23 -134 169 C-132.02 169 -130.04 169 -128 169 C-124.7 159.43 -121.4 149.86 -118 140 C-120.97 140.99 -123.94 141.98 -127 143 C-130.61 144.2 -133.21 144.33 -137 144 C-139.75 142.2 -141.53 140.95 -143 138 C-143.94 129.23 -140.37 122.68 -134.94 115.94 C-132.79 113.41 -131.27 112.57 -128 112 C-126.79 114.16 -126.79 114.16 -126 117 C-127.34 119.72 -127.34 119.72 -129.38 122.5 C-132.08 126.22 -133.49 128.34 -133 133 C-129.68 134.08 -128.16 134.05 -124.81 132.88 C-123.14 132.01 -123.14 132.01 -121.44 131.12 C-120.32 130.57 -119.21 130.02 -118.06 129.45 C-113.94 126.15 -112.72 122.9 -111 118 C-110.65 117.02 -110.3 116.04 -109.95 115.02 C-108.85 111.84 -107.79 108.64 -106.75 105.44 C-106.39 104.33 -106.02 103.23 -105.65 102.09 C-104.76 99.4 -103.88 96.7 -103 94 C-107.62 94 -112.24 94 -117 94 C-116.34 95.32 -115.68 96.64 -115 98 C-115.1 101.12 -116.24 102.31 -118.19 104.81 C-121 107 -121 107 -124.31 106.81 C-125.2 106.54 -126.09 106.28 -127 106 C-126.5 102.27 -126.13 100.19 -124 97 C-124.97 96.61 -125.94 96.22 -126.94 95.81 C-130 94 -130 94 -131.06 91.5 C-131 89 -131 89 -129.91 87.4 C-127.15 85.37 -124.76 85.36 -121.36 85.05 C-119.42 84.86 -119.42 84.86 -117.43 84.67 C-116.06 84.55 -114.68 84.43 -113.31 84.31 C-111.93 84.18 -110.55 84.05 -109.16 83.92 C-105.78 83.6 -102.39 83.3 -99 83 C-98.8 82.47 -98.61 81.93 -98.41 81.38 C-97.51 78.96 -96.6 76.54 -95.69 74.12 C-95.38 73.28 -95.07 72.44 -94.75 71.57 C-94.45 70.77 -94.14 69.96 -93.82 69.13 C-93.55 68.39 -93.27 67.65 -92.98 66.88 C-92 65 -92 65 -89 63 C-88.01 63 -87.02 63 -86 63 C-84 68 -84 68 -88 82 C-70.84 81.34 -53.68 80.68 -36 80 C-33.52 73.81 -31.08 67.63 -28.79 61.37 C-28.36 60.19 -28.36 60.19 -27.93 58.99 C-27.01 56.48 -26.1 53.96 -25.19 51.44 C-24.88 50.58 -24.56 49.72 -24.24 48.83 C-20.03 37.15 -16.13 25.5 -13.13 13.44 C-11.8 8.19 -10.42 4.24 -7 0 C-4.33 -1.33 -2.83 -0.67 0 0 Z " fill="#F9FCFE" transform="translate(680,318)"/>
<path d="M0 0 C-0.24 0.57 -0.49 1.13 -0.74 1.72 C-3.68 8.8 -5.83 16.01 -7.94 23.38 C-11.5 35.59 -15.55 47.6 -19.88 59.56 C-20.16 60.35 -20.44 61.14 -20.73 61.95 C-21.54 64.2 -22.36 66.45 -23.18 68.69 C-23.54 69.69 -23.54 69.69 -23.91 70.71 C-25.27 74.39 -26.58 77.89 -29 81 C-31.21 81.66 -31.21 81.66 -33.81 81.71 C-35.28 81.75 -35.28 81.75 -36.79 81.8 C-37.85 81.8 -38.91 81.81 -40 81.81 C-41.64 81.85 -41.64 81.85 -43.31 81.89 C-46.87 81.96 -50.43 81.98 -54 82 C-55.26 82.01 -56.52 82.02 -57.82 82.03 C-65.55 82.07 -73.27 82.06 -81 82 C-80.04 73.64 -80.04 73.64 -78.88 69.69 C-77.68 66.09 -77.68 66.09 -79 63 C-81.45 63.34 -81.45 63.34 -84 65 C-85.65 67.87 -86.68 70.94 -87.75 74.06 C-88.35 75.72 -88.95 77.38 -89.55 79.04 C-89.8 79.77 -90.06 80.51 -90.32 81.27 C-91 83 -91 83 -92 84 C-94.29 84.3 -96.58 84.54 -98.88 84.75 C-99.57 84.82 -100.25 84.88 -100.96 84.95 C-103.16 85.16 -105.36 85.36 -107.56 85.56 C-109.05 85.7 -110.54 85.84 -112.03 85.98 C-115.69 86.33 -119.34 86.66 -123 87 C-123 88.98 -123 90.96 -123 93 C-120.69 93.99 -118.38 94.98 -116 96 C-117.32 99.3 -118.64 102.6 -120 106 C-116.66 106.07 -114.2 106.07 -111 105 C-108.84 102.19 -109.01 100.85 -109.38 97.25 C-109.58 96.18 -109.79 95.11 -110 94 C-106 92.67 -102.17 92.87 -98 93 C-97.34 93.33 -96.68 93.66 -96 94 C-96.63 100.84 -98.77 107.09 -101 113.56 C-101.35 114.67 -101.7 115.78 -102.06 116.93 C-104.74 124.68 -107.69 128.31 -115 132 C-116.07 132.64 -117.14 133.28 -118.25 133.94 C-121.37 135.14 -122.87 135.07 -126 134 C-126.33 133.67 -126.66 133.34 -127 133 C-126.88 127.04 -124.78 123.79 -121.18 119.11 C-119.76 117.07 -119.76 117.07 -120.32 114.73 C-120.54 114.16 -120.77 113.59 -121 113 C-125.38 114.35 -127.16 116.03 -129.69 119.81 C-130.27 120.66 -130.85 121.52 -131.45 122.39 C-134.46 127.46 -136.14 132.11 -135 138 C-133.1 141.15 -133.1 141.15 -130 143 C-124.9 143.78 -120.84 142.49 -116.11 140.75 C-114.09 140.03 -112.09 139.51 -110 139 C-111.4 143.26 -112.81 147.51 -114.22 151.76 C-114.7 153.21 -115.17 154.66 -115.65 156.11 C-116.34 158.19 -117.03 160.26 -117.71 162.34 C-118.13 163.59 -118.54 164.84 -118.97 166.13 C-120 169 -120 169 -121 170 C-141.14 170.56 -162.52 157.78 -176.88 144.62 C-181.48 139.75 -184.84 134.14 -185.19 127.38 C-180.96 115.37 -168.59 106.06 -158.94 98.38 C-156.21 96.17 -153.55 93.91 -150.91 91.61 C-144.44 85.99 -137.81 80.65 -130.97 75.49 C-128.69 73.76 -126.42 72.02 -124.15 70.28 C-113.61 62.19 -102.98 54.25 -92.16 46.54 C-90 45 -87.85 43.46 -85.7 41.91 C-54.07 19.31 -54.07 19.31 -47 18 C-46.07 14.99 -45.96 14.13 -47 11 C-44.69 10.31 -44.69 10.31 -42 10 C-40.19 11.12 -40.19 11.12 -39 13 C-38.5 15.38 -38.5 15.38 -39 18 C-42.48 22.53 -47.03 24.93 -51.99 27.67 C-52.65 28.11 -53.32 28.55 -54 29 C-54 29.66 -54 30.32 -54 31 C-52.98 30.77 -51.95 30.54 -50.89 30.31 C-49.53 30.02 -48.17 29.73 -46.81 29.44 C-46.14 29.29 -45.47 29.13 -44.77 28.98 C-40.85 28.16 -37.86 27.89 -34 29 C-33.3 29.14 -32.6 29.29 -31.88 29.44 C-30 30 -30 30 -27 32 C-23.46 32.08 -23.46 32.08 -20 31 C-16.23 26.18 -15.08 19.93 -13.51 14.12 C-11.4 6.9 -8.55 -0.67 0 0 Z " fill="#262A3E" transform="translate(673,318)"/>
<path d="M0 0 C0.58 0.23 1.15 0.45 1.75 0.69 C2.83 4.66 2.61 7.11 1.31 11 C1.03 11.88 0.74 12.77 0.44 13.68 C0.21 14.34 -0.01 15 -0.25 15.69 C0.63 15.66 1.51 15.64 2.42 15.62 C3.58 15.6 4.74 15.58 5.94 15.56 C7.09 15.54 8.23 15.52 9.42 15.49 C12.72 15.69 14.84 16.15 17.75 17.69 C20.44 21.15 22.29 24.56 23.75 28.69 C26.95 28.87 29.7 28.72 32.75 27.69 C34.69 25.56 35.99 23.44 37.36 20.91 C39.4 17.64 41.58 16.04 45.25 14.94 C49.48 14.51 49.48 14.51 51.75 15.69 C55.19 20.27 56.41 23.87 56.14 29.61 C55.54 32.82 54.13 34.51 51.75 36.69 C48.82 38.42 46.38 39.01 43 39.31 C42.2 39.39 41.4 39.46 40.58 39.54 C39.97 39.59 39.37 39.64 38.75 39.69 C38.42 41.67 38.09 43.65 37.75 45.69 C43.98 45.24 48.81 42.29 54.19 39.38 C55.1 38.89 56.02 38.4 56.96 37.9 C60.93 35.78 64.86 33.63 68.73 31.32 C71.75 29.69 71.75 29.69 74.69 29.94 C75.37 30.19 76.05 30.43 76.75 30.69 C77.08 32.01 77.41 33.33 77.75 34.69 C70.94 40.26 63.71 44.49 55.94 48.56 C55.03 49.04 54.12 49.51 53.19 50.01 C40.51 56.53 40.51 56.53 33.75 55.69 C30.02 53.86 28.16 52.84 26.75 48.88 C26.75 45.17 27.56 42.19 28.75 38.69 C24.93 38.95 23.15 39.33 20.27 41.94 C19.14 43.3 19.14 43.3 18 44.69 C13.1 50.55 13.1 50.55 9.73 50.89 C3.32 51.02 3.32 51.02 0.19 49.19 C-0.29 48.69 -0.76 48.2 -1.25 47.69 C-0.83 42.35 -0.06 39.49 3.75 35.69 C6.35 33.6 9.02 31.61 11.75 29.69 C10.76 27.71 10.76 27.71 9.75 25.69 C3.29 25.96 -0.7 28.1 -5.25 32.69 C-9.01 38.86 -11.62 45.74 -14.12 52.5 C-14.49 53.48 -14.86 54.47 -15.24 55.48 C-24.04 79.5 -32.2 103.88 -39.17 128.5 C-45.96 152.4 -45.96 152.4 -54.25 160.69 C-56.88 160.31 -56.88 160.31 -59.25 159.69 C-58.66 154.45 -57.43 149.71 -55.69 144.72 C-55.42 143.95 -55.16 143.18 -54.89 142.39 C-54.02 139.84 -53.13 137.3 -52.25 134.75 C-51.63 132.95 -51.01 131.15 -50.39 129.35 C-43.74 110.07 -36.92 90.85 -30.08 71.64 C-27.12 63.32 -24.18 55.01 -21.25 46.69 C-24.02 47.21 -26.53 47.79 -29.19 48.75 C-34.05 50.24 -36.9 50.36 -41.5 48.06 C-44.63 45.36 -45.12 43.57 -46.25 39.69 C-46.77 39.91 -47.3 40.14 -47.84 40.37 C-74.92 52.06 -74.92 52.06 -85.25 50.69 C-88.94 49.07 -90 48.06 -92.25 44.69 C-96.84 46.09 -101.01 47.97 -105.25 50.19 C-117.22 56.44 -117.22 56.44 -124.25 55.69 C-127 54.62 -127 54.62 -129.25 52.69 C-130.56 49 -130.56 49 -131.25 45.69 C-135.76 48.14 -140.2 50.62 -144.5 53.44 C-147.41 55.26 -149.72 56.69 -153.25 56.69 C-155.94 55.81 -155.94 55.81 -158.25 53.69 C-160.39 49 -160.63 44.89 -159.06 40 C-157.67 36.46 -156.06 33.04 -154.25 29.69 C-154.91 29.69 -155.57 29.69 -156.25 29.69 C-156.25 29.03 -156.25 28.37 -156.25 27.69 C-159.92 30.77 -160.69 34.55 -162.09 39 C-163.38 41.99 -164.74 43.63 -167.25 45.69 C-170.27 45.51 -171.09 44.85 -173.25 42.69 C-172.02 38.81 -170.76 34.93 -169.5 31.06 C-169.15 29.97 -168.8 28.87 -168.45 27.75 C-164.99 17.2 -164.99 17.2 -161.25 12.69 C-158.62 11.69 -158.62 11.69 -156.25 11.69 C-154.25 13.69 -154.25 13.69 -153.93 15.63 C-152.93 18.66 -151.1 19.15 -148.31 20.56 C-145.06 22.43 -143.42 23.45 -141.25 26.56 C-141.25 30.82 -143.04 32.54 -145.71 35.72 C-147.65 38.2 -148.49 40.66 -149.25 43.69 C-144.85 43.69 -140.58 39.59 -137 37.25 C-136.06 36.66 -135.12 36.07 -134.14 35.46 C-127.81 31.3 -124.02 27.21 -120.25 20.69 C-117.12 16.74 -114.25 15.48 -109.25 14.69 C-105.71 15.97 -104.5 17.3 -102.44 20.44 C-101.06 24.22 -100.75 26.69 -101.25 30.69 C-103.38 34.72 -105.04 36.99 -109.25 38.69 C-111.61 39.1 -111.61 39.1 -114 39.31 C-114.8 39.39 -115.6 39.46 -116.42 39.54 C-117.03 39.59 -117.63 39.64 -118.25 39.69 C-118.91 41.34 -119.57 42.99 -120.25 44.69 C-118.62 45.54 -118.62 45.54 -116.25 45.69 C-113.66 44.64 -111.32 43.55 -108.88 42.25 C-108.17 41.88 -107.47 41.51 -106.74 41.13 C-105.28 40.37 -103.83 39.59 -102.38 38.81 C-100.4 37.77 -98.41 36.78 -96.4 35.79 C-88.72 31.9 -84.06 27.58 -79.19 20.46 C-74.66 13.99 -68.77 10.06 -61.25 7.69 C-57.38 7.12 -57.38 7.12 -54.25 7.69 C-51.39 10.55 -51.26 12.35 -51.19 16.38 C-51.95 21 -54.32 24.53 -56.88 28.39 C-58.17 30.55 -58.8 32.24 -59.25 34.69 C-49.61 31.88 -42.06 28.57 -35.95 20.36 C-33.81 18.26 -32.18 18.03 -29.25 17.69 C-28.04 19.35 -28.04 19.35 -27.25 21.69 C-28.55 24.31 -28.55 24.31 -30.56 27.12 C-33.06 30.66 -34.84 33.32 -35.25 37.69 C-34.17 38.99 -34.17 38.99 -31.56 38.89 C-26.18 38.56 -21.81 36.84 -17.65 33.33 C-13.07 27.94 -11.74 19.88 -9.95 13.2 C-7.33 3.84 -7.33 3.84 -4.31 0.62 C-2.25 -0.31 -2.25 -0.31 0 0 Z " fill="#F47200" transform="translate(768.25,481.3125)"/>
<path d="M0 0 C0.6 0.21 1.2 0.41 1.81 0.62 C-3.51 10.24 -13.53 16.22 -22.19 22.62 C-35.37 32.54 -48.28 42.83 -60.38 54.06 C-60.97 54.62 -61.57 55.17 -62.19 55.74 C-70.83 63.44 -70.83 63.44 -75.19 73.62 C-72.25 83.91 -63.04 91.44 -54.19 96.62 C-39.84 104.62 -39.84 104.62 -24.07 107.55 C-21.07 106.07 -20.61 103.73 -19.44 100.69 C-19.01 99.61 -18.58 98.52 -18.14 97.41 C-17.08 94.8 -17.08 94.8 -17.19 92.62 C-17.78 92.67 -18.37 92.72 -18.98 92.77 C-25.52 93.06 -25.52 93.06 -28.94 90.81 C-29.68 90.09 -30.42 89.37 -31.19 88.62 C-32.52 88.07 -32.52 88.07 -33.88 87.5 C-37.13 84.86 -37.48 82.37 -38.09 78.31 C-38.34 71.28 -35.1 65.66 -30.81 60.29 C-28.54 57.96 -26.22 56.73 -23.19 55.62 C-22.53 55.62 -21.87 55.62 -21.19 55.62 C-21.27 53.54 -21.38 51.46 -21.5 49.38 C-21.56 48.21 -21.62 47.05 -21.68 45.86 C-22.21 42.46 -22.97 41.16 -25.19 38.62 C-26.36 35.36 -26.41 34.14 -25 30.94 C-23.12 28.54 -22.08 27.5 -19.19 26.62 C-17 26.88 -17 26.88 -15.19 27.62 C-14.69 28.62 -14.69 28.62 -14.19 29.62 C-16.17 29.95 -18.15 30.29 -20.19 30.62 C-20.19 32.61 -20.19 34.58 -20.19 36.62 C-17.88 37.62 -15.57 38.61 -13.19 39.62 C-14.51 42.93 -15.83 46.23 -17.19 49.62 C-13.84 49.7 -11.38 49.69 -8.19 48.62 C-6.03 45.82 -6.2 44.48 -6.56 40.88 C-6.87 39.27 -6.87 39.27 -7.19 37.62 C-3.19 36.29 0.65 36.49 4.81 36.62 C5.47 36.95 6.13 37.28 6.81 37.62 C6.18 44.47 4.04 50.71 1.81 57.19 C1.29 58.85 1.29 58.85 0.75 60.55 C-1.93 68.31 -4.87 71.94 -12.19 75.62 C-13.26 76.26 -14.33 76.9 -15.44 77.56 C-18.56 78.77 -20.05 78.7 -23.19 77.62 C-23.52 77.3 -23.85 76.97 -24.19 76.62 C-24.06 70.67 -21.97 67.41 -18.37 62.74 C-16.94 60.69 -16.94 60.69 -17.51 58.36 C-17.73 57.78 -17.96 57.21 -18.19 56.62 C-22.57 57.97 -24.35 59.65 -26.88 63.44 C-27.46 64.29 -28.04 65.14 -28.64 66.02 C-31.65 71.09 -33.33 75.74 -32.19 81.62 C-30.29 84.77 -30.29 84.77 -27.19 86.62 C-22.09 87.41 -18.03 86.12 -13.3 84.38 C-11.28 83.66 -9.27 83.13 -7.19 82.62 C-8.59 86.88 -10 91.13 -11.41 95.39 C-11.88 96.84 -12.36 98.28 -12.84 99.73 C-13.52 101.81 -14.21 103.89 -14.9 105.96 C-15.32 107.22 -15.73 108.47 -16.16 109.76 C-17.19 112.62 -17.19 112.62 -18.19 113.62 C-38.32 114.18 -59.7 101.41 -74.06 88.25 C-78.67 83.38 -82.03 77.76 -82.38 71 C-78.15 59 -65.77 49.68 -56.13 42 C-53.4 39.8 -50.74 37.53 -48.09 35.23 C-41.64 29.63 -35.04 24.31 -28.22 19.16 C-25.74 17.29 -23.28 15.4 -20.81 13.52 C-18.89 12.05 -16.98 10.59 -15.06 9.12 C-14.14 8.42 -13.21 7.71 -12.26 6.98 C-10.95 5.99 -10.95 5.99 -9.62 4.97 C-8.84 4.37 -8.05 3.78 -7.25 3.16 C-2.45 -0.42 -2.45 -0.42 0 0 Z " fill="#222A3B" transform="translate(570.1875,374.375)"/>
<path d="M0 0 C3 -0.03 6 -0.05 9 -0.06 C9.84 -0.07 10.68 -0.08 11.54 -0.09 C16.79 -0.11 21.8 0.24 27 1 C27 1.33 27 1.66 27 2 C24.69 2 22.38 2 20 2 C20 2.66 20 3.32 20 4 C16.58 5.71 12.62 5.24 8.85 5.33 C5.82 5.73 5.82 5.73 4.2 8.31 C2.79 11.47 1.85 14.65 1 18 C1.74 18.17 2.47 18.35 3.23 18.52 C11.11 20.79 11.11 20.79 13.84 24.49 C15.05 26.96 16.1 29.4 17 32 C20.45 30.57 22.1 28.9 24.25 25.88 C24.77 25.15 25.29 24.43 25.83 23.68 C26.21 23.13 26.6 22.57 27 22 C28.32 22.33 29.64 22.66 31 23 C29.95 24.92 28.88 26.84 27.81 28.75 C27.22 29.82 26.63 30.88 26.02 31.98 C22.5 37.23 17.58 40.26 12 43 C9.65 42.81 8.65 42.65 7 41 C7.15 37.84 7.41 34.7 7.68 31.55 C7.94 28.33 8.03 26.1 7 23 C1.07 23.29 -2.06 25.85 -6 30 C-7.5 31.95 -8.74 33.88 -10 36 C-13.42 25.46 -3.85 9.82 0 0 Z " fill="#21293A" transform="translate(650,407)"/>
<path d="M0 0 C3.96 0.84 6.44 1.46 9.38 4.31 C12.35 9.22 12.13 14.2 12.06 19.81 C12.06 20.51 12.05 21.2 12.05 21.91 C12.04 23.61 12.02 25.3 12 27 C16.12 26.46 18.29 25.3 21.44 22.62 C22.3 21.91 23.16 21.2 24.05 20.47 C25.6 19.17 27.15 17.87 28.7 16.56 C30.49 15.05 32.31 13.55 34.12 12.06 C34.69 11.58 35.25 11.09 35.83 10.59 C40.17 7.05 43.41 6.29 49 6 C45.62 9.51 42.15 12.52 38.25 15.44 C26.43 24.39 15.02 33.82 4.22 43.99 C2 46 2 46 0 47 C0.87 41.62 1.78 36.45 3.62 31.31 C5.87 24.07 6.82 14.42 3.88 7.27 C2.56 5.14 2.56 5.14 1.09 3.38 C0 2 0 2 0 0 Z " fill="#222A3B" transform="translate(503,369)"/>
<path d="M0 0 C0 0.66 0 1.32 0 2 C0.99 2.33 1.98 2.66 3 3 C3 3.33 3 3.66 3 4 C3.63 4.04 4.25 4.07 4.9 4.11 C5.72 4.18 6.53 4.24 7.38 4.31 C8.59 4.4 8.59 4.4 9.84 4.49 C12 5 12 5 14 8 C12.74 11.59 11.71 14.29 9 17 C7.12 16.88 7.12 16.88 5 16 C4.17 14.97 4.17 14.97 3.32 13.93 C1.06 11.66 1.06 11.66 -2.42 11.86 C-4.28 12.09 -4.28 12.09 -6.19 12.31 C-8.46 12.57 -10.73 12.8 -13 13 C-13.33 12.67 -13.66 12.34 -14 12 C-19.06 13.14 -22.32 14.67 -26.32 17.98 C-28 19 -28 19 -32 19 C-31.57 13.61 -30.94 9.85 -27 6 C-23.92 5.42 -21 5.25 -17.88 5.2 C-15.02 5 -13.42 4.47 -11 3 C-11.66 2.34 -12.32 1.68 -13 1 C-8.62 0.41 -4.42 -0.14 0 0 Z " fill="#262B3F" transform="translate(620,408)"/>
<path d="M0 0 C1.35 2.7 0.71 4.08 0.06 7 C-0.73 10.47 -0.73 10.47 -1 14 C5.52 15.48 9.53 14.44 15.68 11.91 C18 11 18 11 20 11 C20.03 11.61 20.05 12.23 20.08 12.86 C20.25 17.97 20.25 17.97 23.06 21.94 C23.7 22.29 24.34 22.64 25 23 C25 23.66 25 24.32 25 25 C22.81 25.31 22.81 25.31 20 25 C19.2 24.18 18.39 23.35 17.56 22.5 C15.24 19.73 15.24 19.73 12.06 19.62 C8.98 19.96 8.98 19.96 5.88 20.62 C2.62 21.05 1.78 20.53 -1 19 C-3.44 18.54 -3.44 18.54 -6 19 C-7.93 20.87 -7.93 20.87 -9.44 23.44 C-10.03 24.35 -10.62 25.25 -11.23 26.19 C-11.81 27.12 -12.4 28.04 -13 29 C-14.1 30.65 -15.2 32.29 -16.31 33.94 C-17.21 35.29 -18.11 36.65 -19 38 C-19.66 38.99 -20.32 39.98 -21 41 C-22.32 41 -23.64 41 -25 41 C-26 38 -26 38 -25.19 36.08 C-24.75 35.36 -24.31 34.64 -23.86 33.89 C-23.37 33.08 -22.88 32.27 -22.38 31.44 C-21.84 30.57 -21.3 29.7 -20.75 28.81 C-20.21 27.93 -19.67 27.04 -19.11 26.13 C-15.51 20.29 -11.79 14.54 -7.94 8.88 C-7.49 8.21 -7.03 7.54 -6.57 6.85 C-4.54 3.93 -2.99 1.99 0 0 Z " fill="#222A3B" transform="translate(649,444)"/>
<path d="M0 0 C-3.36 2.73 -6.78 5.31 -10.31 7.81 C-12.21 9.2 -14.11 10.6 -16 12 C-16.71 12.52 -17.41 13.04 -18.14 13.58 C-28.72 22.08 -37.4 35.67 -40 49 C-40.78 59.34 -39.64 66.93 -33 75 C-33.33 75.99 -33.66 76.98 -34 78 C-36.19 78 -36.19 78 -39 77 C-44.94 70.69 -46.1 62.57 -45.91 54.23 C-44.54 35.04 -33.03 20.44 -19 8 C-7.66 -0.17 -7.66 -0.17 0 0 Z " fill="#222A3B" transform="translate(474,373)"/>
<path d="M0 0 C1.32 0.66 2.64 1.32 4 2 C7.17 2.17 7.17 2.17 10 2 C6.13 26.01 6.13 26.01 -0.77 32.68 C-3.46 34.38 -6.06 35.78 -9 37 C-9.99 37.5 -9.99 37.5 -11 38 C-13 38.04 -15 38.04 -17 38 C-18.1 36.24 -18.1 36.24 -19 34 C-18.46 32.07 -18.46 32.07 -17.38 30.12 C-16.81 29.09 -16.81 29.09 -16.23 28.03 C-15.11 26.19 -13.93 24.44 -12.69 22.69 C-11.85 21.36 -11.85 21.36 -11 20 C-11.33 19.01 -11.66 18.02 -12 17 C-9.03 18.12 -6.67 19.22 -4 21 C-1.24 20.83 -0.24 20.25 1.69 18.25 C3.11 15.81 3.61 13.79 4 11 C2.35 10.34 0.7 9.68 -1 9 C-0.67 6.03 -0.34 3.06 0 0 Z " fill="#222A3B" transform="translate(751,483)"/>
<path d="M0 0 C0.99 0.33 1.98 0.66 3 1 C2.57 2.38 2.13 3.75 1.69 5.12 C1.44 5.89 1.2 6.66 0.95 7.45 C-1.19 13.21 -2.82 16.46 -8.4 19.36 C-9.46 19.92 -10.51 20.48 -11.6 21.05 C-12.7 21.61 -13.8 22.17 -14.94 22.75 C-16.04 23.33 -17.13 23.9 -18.26 24.5 C-21.17 26.02 -24.08 27.52 -27 29 C-27.71 29.39 -28.41 29.77 -29.14 30.17 C-31.78 31.35 -34.15 31.13 -37 31 C-38 28 -38 28 -37.46 25.9 C-34.79 22.42 -30.29 22.67 -26.16 22 C-22.3 20.78 -21.09 19.43 -19 16 C-18.03 11.96 -18.6 8.74 -20.56 5.12 C-21.04 4.42 -21.51 3.72 -22 3 C-21.67 2.34 -21.34 1.68 -21 1 C-17.56 1.29 -16.26 1.73 -13.81 4.25 C-12.13 6.8 -10.99 9.12 -10 12 C-6.5 10.6 -5.29 9.29 -3.75 5.88 C-3.41 5.15 -3.08 4.43 -2.73 3.68 C-2.49 3.13 -2.25 2.57 -2 2 C-1.34 2 -0.68 2 0 2 C0 1.34 0 0.68 0 0 Z " fill="#222A3B" transform="translate(715,428)"/>
<path d="M0 0 C2.44 0.38 2.44 0.38 5 1 C5.33 1.66 5.66 2.32 6 3 C8.27 3.74 10.57 4.4 12.88 5 C19.68 6.79 19.68 6.79 23 9 C23.51 11.38 23.51 11.38 23.69 14.12 C23.79 15.49 23.79 15.49 23.89 16.88 C23.92 17.58 23.96 18.28 24 19 C24.83 18.7 25.66 18.4 26.52 18.09 C27.61 17.71 28.69 17.33 29.81 16.94 C30.89 16.55 31.97 16.17 33.08 15.78 C36 15 36 15 39 16 C36.42 17.63 33.83 19.25 31.25 20.88 C30.16 21.57 30.16 21.57 29.04 22.27 C28.33 22.71 27.62 23.16 26.89 23.62 C26.24 24.03 25.59 24.43 24.92 24.85 C21.22 27.06 19.47 28 15 28 C13.6 23.39 14.54 20.23 15.94 15.69 C16.32 14.43 16.7 13.18 17.09 11.89 C17.39 10.93 17.69 9.98 18 9 C17.34 9 16.68 9 16 9 C16 8.34 16 7.68 16 7 C8.71 9.96 2.53 13.28 -3 19 C-2.25 11.62 -2.25 11.62 -0.94 8.38 C0.21 5.48 0.14 3.09 0 0 Z " fill="#222A3B" transform="translate(725,427)"/>
<path d="M0 0 C0.66 0.66 1.32 1.32 2 2 C1.64 5.65 0.41 8.43 -1.31 11.62 C-6.73 21.4 -6.73 21.4 -7 32 C-7.24 34.09 -7.55 36.18 -7.94 38.25 C-8.13 39.33 -8.33 40.41 -8.53 41.52 C-8.68 42.34 -8.84 43.16 -9 44 C-7.32 44.15 -7.32 44.15 -5.6 44.3 C11.85 45.97 11.85 45.97 17 50 C18.06 52.75 18.06 52.75 18 55 C16.02 55.5 16.02 55.5 14 56 C13.01 54.02 12.02 52.04 11 50 C-2.86 49.5 -2.86 49.5 -17 49 C-18.27 45.19 -17.49 43.91 -16.12 40.18 C-15.7 39.01 -15.27 37.84 -14.84 36.64 C-14.37 35.38 -13.9 34.13 -13.44 32.88 C-12.97 31.6 -12.51 30.33 -12.04 29.06 C-11.12 26.54 -10.2 24.02 -9.27 21.5 C-8.17 18.48 -7.11 15.45 -6.07 12.4 C-5.8 11.61 -5.53 10.82 -5.25 10.01 C-4.76 8.58 -4.28 7.15 -3.8 5.71 C-2.22 1.11 -2.22 1.11 0 0 Z " fill="#222A3B" transform="translate(672,349)"/>
<path d="M0 0 C0.62 0.19 1.23 0.38 1.87 0.58 C1.41 1.77 1.41 1.77 0.95 2.99 C-0.17 5.96 -1.29 8.92 -2.4 11.89 C-2.89 13.17 -3.37 14.46 -3.86 15.74 C-4.56 17.58 -5.25 19.43 -5.94 21.28 C-6.36 22.39 -6.78 23.5 -7.21 24.64 C-8.33 27.7 -8.33 27.7 -8.13 31.58 C-9.45 31.58 -10.77 31.58 -12.13 31.58 C-13.74 25.54 -12.39 21.74 -10.04 16.03 C-8.96 13.54 -8.96 13.54 -9.13 10.58 C-10.59 10.88 -12.05 11.2 -13.51 11.51 C-14.32 11.69 -15.13 11.86 -15.97 12.04 C-18.16 12.5 -18.16 12.5 -20.13 13.58 C-22.13 13.62 -24.13 13.62 -26.13 13.58 C-26.46 12.26 -26.79 10.94 -27.13 9.58 C-26.55 9.38 -25.97 9.18 -25.38 8.98 C-22.73 8.08 -20.09 7.17 -17.44 6.26 C-16.53 5.95 -15.62 5.65 -14.68 5.33 C-10.95 4.04 -7.6 2.87 -4.24 0.78 C-2.13 -0.42 -2.13 -0.42 0 0 Z " fill="#21293A" transform="translate(624.131591796875,452.424560546875)"/>
<path d="M0 0 C0.99 0.33 1.98 0.66 3 1 C2 3.7 1.01 5.99 -0.62 8.38 C-2.38 11.72 -2.22 14.28 -2 18 C-0.35 18 1.3 18 3 18 C-2.65 21.77 -7.4 22.23 -14 22 C-14.66 20.68 -15.32 19.36 -16 18 C-11.91 11.24 -6.6 4.4 0 0 Z " fill="#21293A" transform="translate(606,431)"/>
<path d="M0 0 C2 3 2 3 2 5 C2.66 5 3.32 5 4 5 C4.25 5.76 4.5 6.53 4.75 7.31 C6.13 10.27 7.37 11.18 10 13 C6.47 14.99 2.92 16.97 -0.62 18.94 C-2.12 19.78 -2.12 19.78 -3.65 20.65 C-4.63 21.18 -5.6 21.72 -6.6 22.28 C-7.94 23.02 -7.94 23.02 -9.3 23.78 C-12.22 25.1 -14.84 25.61 -18 26 C-18.66 24.68 -19.32 23.36 -20 22 C-19.06 20.06 -19.06 20.06 -17 18 C-14.74 17.57 -12.52 17.43 -10.22 17.27 C-7.2 16.9 -5.34 15.92 -3 14 C-0.21 10.41 -0.93 6.35 -1 2 C-0.67 1.34 -0.34 0.68 0 0 Z " fill="#222A3B" transform="translate(667,502)"/>
<path d="M0 0 C0.99 0.33 1.98 0.66 3 1 C2.98 1.82 2.95 2.64 2.93 3.48 C2.91 4.56 2.89 5.64 2.88 6.75 C2.85 7.82 2.83 8.88 2.8 9.98 C3 12.92 3.47 14.52 5 17 C4.28 16.94 3.55 16.88 2.8 16.82 C-2.77 16.4 -2.77 16.4 -7.93 18.11 C-9.31 19.38 -10.66 20.69 -12 22 C-13.32 22 -14.64 22 -16 22 C-15.48 17.78 -14.28 15.75 -11.38 12.69 C-10.66 11.92 -9.95 11.15 -9.21 10.36 C-8.48 9.58 -7.75 8.8 -7 8 C-5.66 6.48 -4.33 4.96 -3 3.44 C-2.42 2.78 -1.85 2.11 -1.25 1.43 C-0.84 0.96 -0.42 0.49 0 0 Z " fill="#222A3B" transform="translate(729,450)"/>
<path d="M0 0 C0.99 0.66 1.98 1.32 3 2 C2.65 2.6 2.3 3.21 1.94 3.83 C1.49 4.63 1.03 5.43 0.56 6.25 C0.11 7.04 -0.34 7.83 -0.81 8.64 C-1.89 10.79 -2.53 12.65 -3 15 C-2.34 15 -1.68 15 -1 15 C-1 15.66 -1 16.32 -1 17 C-0.01 17.66 0.98 18.32 2 19 C-3.22 21.2 -8.4 21.68 -14 21 C-14.66 20.34 -15.32 19.68 -16 19 C-13.81 14.06 -11.1 10.56 -7.44 6.69 C-6.94 6.15 -6.45 5.61 -5.94 5.06 C-2.29 1.15 -2.29 1.15 0 0 Z " fill="#222A3B" transform="translate(703,500)"/>
<path d="M0 0 C1.32 0.66 2.64 1.32 4 2 C2.92 2.74 2.92 2.74 1.81 3.5 C-0.82 5.84 -1.7 7.17 -3.25 10.19 C-4.76 12.81 -5.4 13.81 -8.32 14.74 C-10.57 14.97 -12.73 15.08 -15 15 C-16.01 13.21 -17 11.42 -18 9.62 C-18.84 8.13 -18.84 8.13 -19.69 6.6 C-21 4 -21 4 -21 2 C-18.62 1.88 -18.62 1.88 -16 2 C-15.34 2.66 -14.68 3.32 -14 4 C-7.76 4.62 -4.88 3.9 0 0 Z " fill="#222A3B" transform="translate(807,496)"/>
<path d="M0 0 C4.88 1.88 4.88 1.88 6 3 C6.08 6.75 5.9 8.9 3.5 11.84 C-2.17 17.06 -9.12 22 -17 22 C-17 22.66 -17 23.32 -17 24 C-19.31 23.67 -21.62 23.34 -24 23 C-22.02 20.04 -21.5 19.51 -18.48 18.1 C-17.79 17.76 -17.09 17.43 -16.38 17.09 C-15.66 16.75 -14.93 16.41 -14.19 16.06 C-9.37 13.8 -4.94 11.68 -1 8 C-0.1 5.16 0 2.98 0 0 Z " fill="#222A3B" transform="translate(765,443)"/>
<path d="M0 0 C-0.13 0.58 -0.27 1.16 -0.4 1.76 C-1.4 6.16 -2.31 10.54 -3 15 C-4.32 15 -5.64 15 -7 15 C-7.33 14.01 -7.66 13.02 -8 12 C-10 11.96 -12 11.96 -14 12 C-14.33 12.33 -14.66 12.66 -15 13 C-17.94 13.19 -17.94 13.19 -21 13 C-21.66 12.34 -22.32 11.68 -23 11 C-18.48 8.1 -13.92 5.33 -9.25 2.69 C-8.35 2.18 -7.45 1.66 -6.52 1.14 C-4 0 -4 0 0 0 Z " fill="#21293A" transform="translate(708,456)"/>
<path d="M0 0 C0.66 0 1.32 0 2 0 C2 0.66 2 1.32 2 2 C2.66 2 3.32 2 4 2 C3.56 5 2.91 7.16 1.5 9.88 C-1.1 15.29 -1.43 19.29 0.44 24.94 C0.94 26.3 1.46 27.65 2 29 C-2 29 -2 29 -4.36 26.81 C-5.15 25.88 -5.94 24.96 -6.75 24 C-7.55 23.07 -8.35 22.14 -9.17 21.19 C-10.08 20.1 -10.08 20.1 -11 19 C-10.28 18.44 -9.56 17.89 -8.81 17.31 C-5.04 13.62 -3.74 8.64 -2.02 3.77 C-1 1 -1 1 0 0 Z " fill="#222A3B" transform="translate(610,509)"/>
<path d="M0 0 C2.12 0.38 2.12 0.38 4 1 C3.02 3.65 2.04 6.29 1.06 8.94 C0.78 9.69 0.51 10.45 0.22 11.22 C-1.89 16.89 -1.89 16.89 -3 18 C-4.49 18.16 -5.98 18.25 -7.47 18.32 C-8.37 18.36 -9.27 18.4 -10.2 18.44 C-11.62 18.5 -11.62 18.5 -13.06 18.56 C-14.01 18.61 -14.96 18.65 -15.94 18.69 C-18.29 18.8 -20.65 18.9 -23 19 C-22.17 17.05 -22.17 17.05 -21 15 C-18.29 14.21 -18.29 14.21 -15.06 13.81 C-11.86 13.4 -9.07 13.02 -6 12 C-4.83 9.74 -4.83 9.74 -3.94 7.06 C-2.19 2.19 -2.19 2.19 0 0 Z " fill="#222A3B" transform="translate(584,384)"/>
<path d="M0 0 C1.12 1.62 1.12 1.62 2 4 C1.12 7.25 1.12 7.25 0 10 C4.28 9.51 6.68 8.73 10 6 C10.66 6 11.32 6 12 6 C8.75 13.61 -0.22 16.12 -7.36 19.18 C-10 20 -10 20 -13 19 C-12.38 18.61 -11.76 18.22 -11.12 17.81 C-8.6 15.66 -8.16 14.07 -7 11 C-6.19 9.24 -5.35 7.49 -4.5 5.75 C-4.08 4.88 -3.65 4.01 -3.22 3.11 C-2 1 -2 1 0 0 Z " fill="#222A3B" transform="translate(718,498)"/>
<path d="M0 0 C1.21 3.64 0.66 4.7 -0.58 8.25 C-1.11 9.78 -1.11 9.78 -1.66 11.34 C-2.04 12.4 -2.42 13.47 -2.81 14.56 C-3.37 16.16 -3.37 16.16 -3.93 17.79 C-6.73 25.73 -6.73 25.73 -9 28 C-11.58 28.14 -14.05 28.19 -16.62 28.12 C-17.68 28.11 -17.68 28.11 -18.77 28.1 C-20.51 28.07 -22.26 28.04 -24 28 C-22.77 26.04 -22.77 26.04 -21 24 C-18.91 23.52 -18.91 23.52 -16.62 23.38 C-13.5 22.81 -12.37 22.51 -10.48 19.9 C-9.65 18.15 -8.86 16.39 -8.12 14.6 C-7.07 12.16 -5.92 10.3 -4.31 8.19 C-2.32 5.44 -1.06 3.19 0 0 Z " fill="#222A3B" transform="translate(653,371)"/>
<path d="M0 0 C3.65 1.25 4.78 1.67 7 5 C6.97 7.74 6.45 10.28 6 13 C8.97 13.33 11.94 13.66 15 14 C14.34 15.32 13.68 16.64 13 18 C8.05 18 3.1 18 -2 18 C-1.55 13.76 -0.99 9.74 0.12 5.62 C1.37 2.19 1.37 2.19 0 0 Z " fill="#222A3B" transform="translate(594,382)"/>
<path d="M0 0 C3.38 1.13 3.53 1.45 5.06 4.44 C6.26 6.74 7.13 8.13 9 10 C4.05 13.3 -0.9 16.6 -6 20 C-6.66 18.68 -7.32 17.36 -8 16 C-7.21 14 -7.21 14 -5.81 12 C-5.34 11.3 -4.87 10.61 -4.38 9.89 C-3.35 8.48 -2.28 7.11 -1.19 5.75 C0.37 3.8 0.37 3.8 0 0 Z " fill="#222A3B" transform="translate(626,507)"/>
<path d="M0 0 C2.41 2.3 3.6 4.02 4.69 7.19 C4.94 7.9 5.19 8.62 5.45 9.36 C5.63 9.9 5.81 10.44 6 11 C4.08 11.59 4.08 11.59 2 12 C1.59 11.5 1.17 11.01 0.75 10.5 C-1.08 8.57 -1.08 8.57 -4.69 9.25 C-6.13 9.49 -7.56 9.74 -9 10 C-16.69 11.16 -16.69 11.16 -19 10 C-17.7 7.41 -16.6 7.2 -13.96 6.05 C-13.16 5.7 -12.35 5.35 -11.51 4.98 C-10.66 4.62 -9.81 4.25 -8.94 3.88 C-8.08 3.5 -7.23 3.13 -6.35 2.75 C-4.24 1.82 -2.12 0.91 0 0 Z " fill="#222A3B" transform="translate(721,520)"/>
<path d="M0 0 C0.29 1.13 0.58 2.27 0.88 3.44 C1.25 4.61 1.62 5.79 2 7 C2.66 7.33 3.32 7.66 4 8 C3.31 7.95 2.62 7.91 1.91 7.86 C-4.35 7.62 -8.43 8.33 -13.98 11.18 C-16.88 12.36 -19.07 11.9 -22 11 C-22 10.34 -22 9.68 -22 9 C-4 0 -4 0 0 0 Z " fill="#222A3B" transform="translate(678,525)"/>
<path d="M0 0 C2.44 0.38 2.44 0.38 5 1 C5.33 1.66 5.66 2.32 6 3 C8.34 3.91 8.34 3.91 11.06 4.62 C12.44 5.02 12.44 5.02 13.85 5.41 C14.56 5.61 15.27 5.8 16 6 C13.69 7.54 11.61 8.7 9.12 9.88 C4.41 12.2 0.62 15.19 -3 19 C-2.25 11.62 -2.25 11.62 -0.94 8.38 C0.21 5.48 0.14 3.09 0 0 Z " fill="#222A3B" transform="translate(725,427)"/>
<path d="M0 0 C0.91 0.12 1.82 0.25 2.75 0.38 C4.2 6.54 4.2 6.54 2.19 10.25 C-0.67 12.74 -2.51 13.12 -6.25 13.38 C-6.25 12.71 -6.25 12.06 -6.25 11.38 C-6.91 11.38 -7.57 11.38 -8.25 11.38 C-7.61 5.93 -5.93 0.68 0 0 Z " fill="#F67300" transform="translate(747.25,480.625)"/>
<path d="M0 0 C0.66 0.33 1.32 0.66 2 1 C2 1.66 2 2.32 2 3 C2.99 3.33 3.98 3.66 5 4 C2.8 5.18 0.59 6.35 -1.62 7.5 C-2.55 8 -2.55 8 -3.5 8.51 C-7.52 10.58 -10.49 11.39 -15 11 C-16 8 -16 8 -15.47 5.92 C-13.26 3.04 -10.94 2.98 -7.44 2.31 C-3.4 1.84 -3.4 1.84 0 0 Z " fill="#21293A" transform="translate(693,448)"/>
<path d="M0 0 C-2.82 12.2 -2.82 12.2 -7 16 C-9.25 16.81 -9.25 16.81 -11 17 C-11.33 16.34 -11.66 15.68 -12 15 C-11.53 14.32 -11.05 13.64 -10.56 12.94 C-8.42 8.92 -8.74 5.46 -9 1 C-5.47 -0.67 -3.72 -1.14 0 0 Z " fill="#272B3F" transform="translate(567,428)"/>
<path d="M0 0 C1.14 3.42 0.84 4.24 -0.25 7.56 C-0.53 8.44 -0.81 9.32 -1.09 10.23 C-1.7 12.08 -2.3 13.92 -2.91 15.77 C-3.18 16.65 -3.46 17.53 -3.75 18.44 C-4.01 19.24 -4.28 20.04 -4.55 20.87 C-5.22 23.17 -5.22 23.17 -4 26 C-6.38 25.69 -6.38 25.69 -9 25 C-11.19 21.71 -11.52 20.81 -11 17 C-9.36 14.32 -9.36 14.32 -7.19 11.56 C-4.29 7.85 -2 4.28 0 0 Z " fill="#222A3B" transform="translate(601,502)"/>
<path d="M0 0 C0.66 3.3 1.32 6.6 2 10 C-1 11 -1 11 -3.75 10.44 C-7.65 9.91 -10.31 10.74 -14 12 C-14 9 -14 9 -12.56 7.12 C-3.97 0 -3.97 0 0 0 Z " fill="#222A3B" transform="translate(638,526)"/>
<path d="M0 0 C2.31 0.33 4.62 0.66 7 1 C6.01 1.5 6.01 1.5 5 2 C5 3.65 5 5.3 5 7 C3.02 7.33 1.04 7.66 -1 8 C-1.62 5.69 -1.62 5.69 -2 3 C-1.34 2.01 -0.68 1.02 0 0 Z " fill="#242A3D" transform="translate(807,520)"/>
<path d="M0 0 C0.99 0.33 1.98 0.66 3 1 C2.79 1.54 2.59 2.07 2.38 2.62 C1.87 5.83 2.85 8.01 4 11 C2.02 11 0.04 11 -2 11 C-3 9 -3 9 -2.44 6.84 C-2.15 6.02 -1.86 5.21 -1.56 4.38 C-1.28 3.56 -0.99 2.74 -0.69 1.9 C-0.46 1.27 -0.24 0.65 0 0 Z " fill="#222A3B" transform="translate(770,487)"/>
<path d="M0 0 C0.99 0 1.98 0 3 0 C3.66 1.32 4.32 2.64 5 4 C3.02 6.64 1.04 9.28 -1 12 C-2.24 7.03 -1.37 4.84 0 0 Z " fill="#1D2737" transform="translate(641,431)"/>
<path d="M0 0 C0.99 0.33 1.98 0.66 3 1 C1.81 4.38 0.72 6.65 -2 9 C-3.32 7.68 -4.64 6.36 -6 5 C-1.61 1 -1.61 1 0 0 Z " fill="#1D2737" transform="translate(606,431)"/>
<path d="M0 0 C1 2 1 2 0.62 3.91 C-0.13 6.07 -0.85 8.03 -2 10 C-4.69 11 -4.69 11 -7 11 C-7 6.95 -5.39 5.2 -3 2 C-2.01 1.34 -1.02 0.68 0 0 Z " fill="#1E2838" transform="translate(649,444)"/>
<path d="M0 0 C0.33 0.66 0.66 1.32 1 2 C2.32 2.66 3.64 3.32 5 4 C3.02 6.31 1.04 8.62 -1 11 C-2.32 8.37 -1.75 7.2 -1.06 4.38 C-0.87 3.56 -0.67 2.74 -0.47 1.9 C-0.24 0.96 -0.24 0.96 0 0 Z " fill="#202838" transform="translate(505,405)"/>
<path d="M0 0 C0.99 0.33 1.98 0.66 3 1 C2.67 2.98 2.34 4.96 2 7 C0.35 6.67 -1.3 6.34 -3 6 C-2.43 3.13 -2.14 2.14 0 0 Z " fill="#1D2737" transform="translate(729,450)"/>
<path d="M0 0 C1.32 1.32 2.64 2.64 4 4 C-0.75 8.88 -0.75 8.88 -3 10 C-2.25 2.25 -2.25 2.25 0 0 Z " fill="#1E2738" transform="translate(725,436)"/>
</svg>
